<mxfile host="app.diagrams.net" modified="2023-03-29T11:42:16.997Z" agent="Mozilla/5.0 (X11; Linux x86_64; rv:109.0) Gecko/20100101 Firefox/111.0" etag="y61lPGZorn0qq1SwLQlM" version="21.1.1" type="device">
  <diagram name="Page-1" id="c_ZCJNDN84q99_T3_w0r">
    <mxGraphModel dx="1434" dy="759" grid="1" gridSize="10" guides="1" tooltips="1" connect="1" arrows="1" fold="1" page="1" pageScale="1" pageWidth="850" pageHeight="1100" math="0" shadow="0">
      <root>
        <mxCell id="0" />
        <mxCell id="1" parent="0" />
        <mxCell id="ZjNlUAodU7pVC0Oni_or-3" value="Azure" style="swimlane;whiteSpace=wrap;html=1;startSize=23;" parent="1" vertex="1">
          <mxGeometry x="360" y="120" width="250" height="400" as="geometry" />
        </mxCell>
        <mxCell id="ZjNlUAodU7pVC0Oni_or-2" value="" style="aspect=fixed;html=1;points=[];align=center;image;fontSize=12;image=img/lib/azure2/databases/Azure_Database_PostgreSQL_Server.svg;" parent="ZjNlUAodU7pVC0Oni_or-3" vertex="1">
          <mxGeometry x="156" y="40" width="48" height="64" as="geometry" />
        </mxCell>
        <mxCell id="BFJ1nqE_ifQcU44rOeub-17" value="" style="aspect=fixed;html=1;points=[];align=center;image;fontSize=12;image=img/lib/azure2/compute/Function_Apps.svg;" parent="ZjNlUAodU7pVC0Oni_or-3" vertex="1">
          <mxGeometry x="67.33" y="320" width="45.33" height="40" as="geometry" />
        </mxCell>
        <mxCell id="BFJ1nqE_ifQcU44rOeub-19" value="azure function" style="text;html=1;align=center;verticalAlign=middle;resizable=0;points=[];autosize=1;strokeColor=none;fillColor=none;" parent="ZjNlUAodU7pVC0Oni_or-3" vertex="1">
          <mxGeometry x="39.999999999999986" y="360" width="100" height="30" as="geometry" />
        </mxCell>
        <mxCell id="BFJ1nqE_ifQcU44rOeub-1" value="container" style="swimlane;whiteSpace=wrap;html=1;" parent="ZjNlUAodU7pVC0Oni_or-3" vertex="1">
          <mxGeometry x="39.999999999999986" y="160" width="100" height="120.87" as="geometry" />
        </mxCell>
        <mxCell id="BFJ1nqE_ifQcU44rOeub-7" value="" style="shape=image;imageAspect=0;aspect=fixed;verticalLabelPosition=bottom;verticalAlign=top;image=https://upload.wikimedia.org/wikipedia/commons/thumb/c/c3/Python-logo-notext.svg/1869px-Python-logo-notext.svg.png;" parent="BFJ1nqE_ifQcU44rOeub-1" vertex="1">
          <mxGeometry x="31.73" y="30" width="36.54" height="40" as="geometry" />
        </mxCell>
        <mxCell id="BFJ1nqE_ifQcU44rOeub-9" value="scraper" style="text;html=1;align=center;verticalAlign=middle;resizable=0;points=[];autosize=1;strokeColor=none;fillColor=none;" parent="BFJ1nqE_ifQcU44rOeub-1" vertex="1">
          <mxGeometry x="20.00000000000002" y="70" width="60" height="30" as="geometry" />
        </mxCell>
        <mxCell id="BFJ1nqE_ifQcU44rOeub-12" style="edgeStyle=orthogonalEdgeStyle;rounded=0;orthogonalLoop=1;jettySize=auto;html=1;exitX=0.5;exitY=0;exitDx=0;exitDy=0;entryX=0;entryY=0.578;entryDx=0;entryDy=0;entryPerimeter=0;" parent="ZjNlUAodU7pVC0Oni_or-3" source="BFJ1nqE_ifQcU44rOeub-1" target="ZjNlUAodU7pVC0Oni_or-2" edge="1">
          <mxGeometry relative="1" as="geometry" />
        </mxCell>
        <mxCell id="BFJ1nqE_ifQcU44rOeub-18" style="edgeStyle=orthogonalEdgeStyle;rounded=0;orthogonalLoop=1;jettySize=auto;html=1;entryX=0.5;entryY=1;entryDx=0;entryDy=0;" parent="ZjNlUAodU7pVC0Oni_or-3" source="BFJ1nqE_ifQcU44rOeub-17" target="BFJ1nqE_ifQcU44rOeub-1" edge="1">
          <mxGeometry relative="1" as="geometry" />
        </mxCell>
        <mxCell id="BFJ1nqE_ifQcU44rOeub-10" value="data base" style="text;html=1;align=center;verticalAlign=middle;resizable=0;points=[];autosize=1;strokeColor=none;fillColor=none;" parent="ZjNlUAodU7pVC0Oni_or-3" vertex="1">
          <mxGeometry x="140" y="110" width="80" height="30" as="geometry" />
        </mxCell>
        <mxCell id="BFJ1nqE_ifQcU44rOeub-11" style="edgeStyle=orthogonalEdgeStyle;rounded=0;orthogonalLoop=1;jettySize=auto;html=1;exitX=1;exitY=0.5;exitDx=0;exitDy=0;entryX=0;entryY=0.5;entryDx=0;entryDy=0;" parent="1" source="BFJ1nqE_ifQcU44rOeub-4" target="BFJ1nqE_ifQcU44rOeub-1" edge="1">
          <mxGeometry relative="1" as="geometry" />
        </mxCell>
        <mxCell id="BFJ1nqE_ifQcU44rOeub-4" value="" style="shape=image;imageAspect=0;aspect=fixed;verticalLabelPosition=bottom;verticalAlign=top;image=https://e7.pngegg.com/pngimages/928/235/png-clipart-internet-world-wide-web-world-wide-web-consortium-world-wide-web-web-design-search-engine-optimization.png;" parent="1" vertex="1">
          <mxGeometry x="200" y="300" width="90.83" height="80" as="geometry" />
        </mxCell>
        <mxCell id="BFJ1nqE_ifQcU44rOeub-6" value="&lt;div&gt;lemonde.fr&lt;/div&gt;" style="text;html=1;align=center;verticalAlign=middle;resizable=0;points=[];autosize=1;strokeColor=none;fillColor=none;" parent="1" vertex="1">
          <mxGeometry x="205.41" y="379.13" width="80" height="30" as="geometry" />
        </mxCell>
        <mxCell id="BFJ1nqE_ifQcU44rOeub-14" value="" style="shape=image;imageAspect=0;aspect=fixed;verticalLabelPosition=bottom;verticalAlign=top;image=https://img.freepik.com/free-icon/user-with-computer-monitor-bar-graphs_318-49594.jpg;" parent="1" vertex="1">
          <mxGeometry x="690" y="460" width="80" height="80" as="geometry" />
        </mxCell>
        <mxCell id="BFJ1nqE_ifQcU44rOeub-24" style="edgeStyle=orthogonalEdgeStyle;rounded=0;orthogonalLoop=1;jettySize=auto;html=1;entryX=0.5;entryY=0;entryDx=0;entryDy=0;exitX=0.5;exitY=1;exitDx=0;exitDy=0;" parent="1" source="BFJ1nqE_ifQcU44rOeub-20" target="BFJ1nqE_ifQcU44rOeub-14" edge="1">
          <mxGeometry relative="1" as="geometry" />
        </mxCell>
        <mxCell id="BFJ1nqE_ifQcU44rOeub-20" value="streamlit cloud" style="swimlane;whiteSpace=wrap;html=1;" parent="1" vertex="1">
          <mxGeometry x="660" y="281" width="140" height="120.87" as="geometry" />
        </mxCell>
        <mxCell id="BFJ1nqE_ifQcU44rOeub-21" value="" style="shape=image;imageAspect=0;aspect=fixed;verticalLabelPosition=bottom;verticalAlign=top;image=https://upload.wikimedia.org/wikipedia/commons/thumb/c/c3/Python-logo-notext.svg/1869px-Python-logo-notext.svg.png;" parent="BFJ1nqE_ifQcU44rOeub-20" vertex="1">
          <mxGeometry x="51.730000000000004" y="39" width="36.54" height="40" as="geometry" />
        </mxCell>
        <mxCell id="BFJ1nqE_ifQcU44rOeub-22" value="streamlit" style="text;html=1;align=center;verticalAlign=middle;resizable=0;points=[];autosize=1;strokeColor=none;fillColor=none;" parent="BFJ1nqE_ifQcU44rOeub-20" vertex="1">
          <mxGeometry x="35.00000000000002" y="79" width="70" height="30" as="geometry" />
        </mxCell>
        <mxCell id="BFJ1nqE_ifQcU44rOeub-23" style="edgeStyle=orthogonalEdgeStyle;rounded=0;orthogonalLoop=1;jettySize=auto;html=1;entryX=0.5;entryY=0;entryDx=0;entryDy=0;exitX=1.004;exitY=0.552;exitDx=0;exitDy=0;exitPerimeter=0;" parent="1" source="ZjNlUAodU7pVC0Oni_or-2" target="BFJ1nqE_ifQcU44rOeub-20" edge="1">
          <mxGeometry relative="1" as="geometry" />
        </mxCell>
        <mxCell id="KbO2PQ0m4i_ZOW4Q5I0f-1" value="" style="shape=image;verticalLabelPosition=bottom;labelBackgroundColor=default;verticalAlign=top;aspect=fixed;imageAspect=0;image=https://swimburger.net/media/ppnn3pcl/azure.png;" parent="1" vertex="1">
          <mxGeometry x="350" y="100" width="50" height="50" as="geometry" />
        </mxCell>
        <mxCell id="KbO2PQ0m4i_ZOW4Q5I0f-4" value="" style="shape=image;imageAspect=0;aspect=fixed;verticalLabelPosition=bottom;verticalAlign=top;image=https://d25hn4jiqx5f7l.cloudfront.net/companies/logos/medium/streamlit_1614817555.png?1614817555;" parent="1" vertex="1">
          <mxGeometry x="770" y="260" width="72.73" height="40" as="geometry" />
        </mxCell>
        <mxCell id="Mh8Jvy5w5q4MH01YW7NA-5" style="edgeStyle=orthogonalEdgeStyle;rounded=0;orthogonalLoop=1;jettySize=auto;html=1;exitX=0;exitY=0.5;exitDx=0;exitDy=0;dashed=1;" edge="1" parent="1" source="Mh8Jvy5w5q4MH01YW7NA-1">
          <mxGeometry relative="1" as="geometry">
            <mxPoint x="730" y="200" as="targetPoint" />
          </mxGeometry>
        </mxCell>
        <mxCell id="Mh8Jvy5w5q4MH01YW7NA-1" value="" style="shape=image;html=1;verticalAlign=top;verticalLabelPosition=bottom;labelBackgroundColor=#ffffff;imageAspect=0;aspect=fixed;image=https://cdn1.iconfinder.com/data/icons/bootstrap-vol-3/16/filetype-csv-128.png" vertex="1" parent="1">
          <mxGeometry x="830" y="130" width="70" height="70" as="geometry" />
        </mxCell>
        <mxCell id="Mh8Jvy5w5q4MH01YW7NA-6" value="&lt;div&gt;degraded mode&lt;/div&gt;" style="text;html=1;align=center;verticalAlign=middle;resizable=0;points=[];autosize=1;strokeColor=none;fillColor=none;" vertex="1" parent="1">
          <mxGeometry x="810" y="200" width="110" height="30" as="geometry" />
        </mxCell>
      </root>
    </mxGraphModel>
  </diagram>
</mxfile>
